<?xml version="1.0" encoding="iso-8859-1"?>
<!-- Generator: Adobe Illustrator 19.0.0, SVG Export Plug-In . SVG Version: 6.00 Build 0)  -->
<svg xmlns="http://www.w3.org/2000/svg" xmlns:xlink="http://www.w3.org/1999/xlink" version="1.1" id="Layer_1" x="0px" y="0px" viewBox="0 0 497 497" style="enable-background:new 0 0 497 497;" xml:space="preserve" width="512" height="512">
<g>
	<path style="fill:#FFD187;" d="M432.226,22.266H165.615c-9.725,0-17.609,7.884-17.609,17.609v79.595l-25.085,18.814l25.085,41.39   l96.263,30.569l205.565-30.569V39.875C449.835,30.15,441.951,22.266,432.226,22.266z"/>
	<polygon style="fill:#E9A45D;" points="148.007,179.673 122.922,240.818 148.007,337.081 279.509,365.301 449.835,337.081    449.835,179.673  "/>
	<g>
		<g>
			<path style="fill:#4B5562;" d="M230.93,90.16c-4.142,0-7.5-3.358-7.5-7.5V70.197c0-4.142,3.358-7.5,7.5-7.5s7.5,3.358,7.5,7.5     V82.66C238.43,86.802,235.072,90.16,230.93,90.16z"/>
		</g>
		<g>
			<path style="fill:#4B5562;" d="M368.657,90.16c-4.142,0-7.5-3.358-7.5-7.5V70.197c0-4.142,3.358-7.5,7.5-7.5s7.5,3.358,7.5,7.5     V82.66C376.157,86.802,372.799,90.16,368.657,90.16z"/>
		</g>
		<g>
			<path style="fill:#4B5562;" d="M299.793,96.813c-8.788,0-17.042-3.675-22.643-10.084c-2.727-3.119-2.408-7.857,0.71-10.583     c3.119-2.726,7.857-2.408,10.583,0.711c2.753,3.15,6.89,4.956,11.35,4.956c4.459,0,8.596-1.806,11.35-4.956     c2.726-3.119,7.464-3.436,10.583-0.711c3.119,2.726,3.437,7.464,0.71,10.583C316.834,93.137,308.582,96.813,299.793,96.813z"/>
		</g>
	</g>
	<g>
		<g>
			<path style="fill:#4B5562;" d="M230.93,247.965c-4.142,0-7.5-3.358-7.5-7.5v-12.463c0-4.142,3.358-7.5,7.5-7.5s7.5,3.358,7.5,7.5     v12.463C238.43,244.607,235.072,247.965,230.93,247.965z"/>
		</g>
		<g>
			<path style="fill:#4B5562;" d="M368.657,247.965c-4.142,0-7.5-3.358-7.5-7.5v-12.463c0-4.142,3.358-7.5,7.5-7.5     s7.5,3.358,7.5,7.5v12.463C376.157,244.607,372.799,247.965,368.657,247.965z"/>
		</g>
		<g>
			<path style="fill:#4B5562;" d="M299.793,254.617c-8.789,0-17.042-3.675-22.644-10.084c-2.726-3.119-2.408-7.857,0.711-10.583     s7.857-2.408,10.583,0.711c2.753,3.149,6.89,4.956,11.35,4.956c4.459,0,8.596-1.806,11.35-4.956     c2.726-3.119,7.464-3.436,10.583-0.711c3.119,2.726,3.437,7.464,0.71,10.583C316.834,250.942,308.582,254.617,299.793,254.617z"/>
		</g>
	</g>
	<polygon style="fill:#DA9145;" points="140.189,307.081 148.007,337.081 279.51,365.301 449.835,337.081 449.835,307.081  "/>
	<g>
		<path style="fill:#809CE4;" d="M100.973,365.301V135.336l-86.253-34.823C2.676,95.651-3.146,81.946,1.716,69.903    C6.579,57.859,20.283,52.037,32.328,56.9l100.966,40.763c8.891,3.59,14.713,12.218,14.713,21.807v245.831H100.973z"/>
	</g>
	<polygon style="fill:#6382D4;" points="148.007,307.081 100.973,307.081 100.973,307.081 100.973,365.301 148.007,365.301  "/>
	<path style="fill:#FF9BCA;" d="M468.78,393.521H100.973c-15.586,0-28.22-12.635-28.22-28.22c0-15.586,12.635-28.22,28.22-28.22   H468.78c15.586,0,28.22,12.635,28.22,28.22C497,380.887,484.365,393.521,468.78,393.521z"/>
	<circle style="fill:#4B5562;" cx="172.386" cy="421.507" r="53.227"/>
	<circle style="fill:#FFD187;" cx="172.386" cy="421.507" r="18.735"/>
	<circle style="fill:#4B5562;" cx="396.608" cy="421.507" r="53.227"/>
	<circle style="fill:#FFD187;" cx="396.608" cy="421.507" r="18.735"/>
</g>















</svg>
